<?xml version="1.0" encoding="UTF-8" standalone="no"?>
<!-- Created with Inkscape (http://www.inkscape.org/) -->

<svg
   xmlns:dc="http://purl.org/dc/elements/1.1/"
   xmlns:cc="http://creativecommons.org/ns#"
   xmlns:rdf="http://www.w3.org/1999/02/22-rdf-syntax-ns#"
   xmlns:svg="http://www.w3.org/2000/svg"
   xmlns="http://www.w3.org/2000/svg"
   xmlns:sodipodi="http://sodipodi.sourceforge.net/DTD/sodipodi-0.dtd"
   xmlns:inkscape="http://www.inkscape.org/namespaces/inkscape"
   width="210mm"
   height="297mm"
   viewBox="0 0 210 297"
   version="1.1"
   id="svg8"
   inkscape:version="0.92.4 (5da689c313, 2019-01-14)"
   sodipodi:docname="bun_ears.svg">
  <defs
     id="defs2" />
  <sodipodi:namedview
     id="base"
     pagecolor="#ffffff"
     bordercolor="#666666"
     borderopacity="1.0"
     inkscape:pageopacity="0.0"
     inkscape:pageshadow="2"
     inkscape:zoom="0.49497475"
     inkscape:cx="-112.75138"
     inkscape:cy="591.15581"
     inkscape:document-units="mm"
     inkscape:current-layer="layer1"
     showgrid="false"
     inkscape:window-width="1366"
     inkscape:window-height="714"
     inkscape:window-x="0"
     inkscape:window-y="31"
     inkscape:window-maximized="1" />
  <metadata
     id="metadata5">
    <rdf:RDF>
      <cc:Work
         rdf:about="">
        <dc:format>image/svg+xml</dc:format>
        <dc:type
           rdf:resource="http://purl.org/dc/dcmitype/StillImage" />
        <dc:title></dc:title>
      </cc:Work>
    </rdf:RDF>
  </metadata>
  <g
     inkscape:label="Layer 1"
     inkscape:groupmode="layer"
     id="layer1">
    <path
       style="fill:#333333;stroke:#000000;stroke-width:0.14205799px;stroke-linecap:butt;stroke-linejoin:miter;stroke-opacity:1"
       d="m 52.97502,130.87201 c 49.7561,-37.694826 104.63859,-2.59494 104.63859,-2.59494 0,0 10.85589,8.3311 1.65853,-8.60426 -9.19733,-16.93534 -61.215069,-15.43302 -61.215069,-15.43302 0,0 -51.414646,1.36575 -45.082051,26.63222 z"
       id="path10"
       inkscape:connector-curvature="0" />
    <path
       style="fill:#cccccc;stroke:#000000;stroke-width:0.14205799px;stroke-linecap:butt;stroke-linejoin:miter;stroke-opacity:1"
       d="M 76.194539,112.57088 C 52.97502,24.6163 85.844207,20.109318 85.844207,20.109318 c 17.099763,-4.40565 5.02587,59.455841 7.5388,89.183762 -5.193923,-0.84788 -10.858095,0.007 -17.188468,3.2778 z"
       id="path12"
       inkscape:connector-curvature="0"
       sodipodi:nodetypes="cccc" />
    <path
       style="fill:#ff8080;stroke:#000000;stroke-width:0.14205799px;stroke-linecap:butt;stroke-linejoin:miter;stroke-opacity:1"
       d="m 80.576236,110.02393 c -13.565683,-83.888494 1.774696,-84.681837 5.79718,-84.598339 8.658165,-2.776034 -0.310818,56.46415 2.305544,83.246309 -2.994792,0.11791 -5.676406,0.59043 -8.102724,1.35203 z"
       id="path29"
       inkscape:connector-curvature="0"
       sodipodi:nodetypes="cccc" />
    <path
       style="fill:#cccccc;stroke:#000000;stroke-width:0.14205799px;stroke-linecap:butt;stroke-linejoin:miter;stroke-opacity:1"
       d="m 136.03785,112.8865 c 23.21953,-87.954614 -9.64966,-92.461596 -9.64966,-92.461596 -17.09978,-4.405651 -5.02587,59.45584 -7.53882,89.183766 5.19394,-0.84788 10.85812,0.007 17.18848,3.27783 z"
       id="path12-6"
       inkscape:connector-curvature="0"
       sodipodi:nodetypes="cccc" />
    <path
       style="fill:#ff8080;stroke:#000000;stroke-width:0.14205799px;stroke-linecap:butt;stroke-linejoin:miter;stroke-opacity:1"
       d="m 132.34458,109.8658 c 13.56568,-83.888496 -1.7747,-84.681839 -5.79719,-84.598325 -8.65815,-2.776035 0.31084,56.464134 -2.30555,83.246305 2.9948,0.11792 5.67643,0.59042 8.10274,1.35202 z"
       id="path29-7"
       inkscape:connector-curvature="0"
       sodipodi:nodetypes="cccc" />
    <path
       style="fill:#333333;stroke:#000000;stroke-width:0.14205799px;stroke-linecap:butt;stroke-linejoin:miter;stroke-opacity:1"
       d="m 54.317927,273.35215 c 49.756103,-37.69483 104.638583,-2.59494 104.638583,-2.59494 0,0 10.85589,8.3311 1.65853,-8.60426 -9.19733,-16.93534 -61.215061,-15.43302 -61.215061,-15.43302 0,0 -51.414647,1.36575 -45.082052,26.63222 z"
       id="path10-5"
       inkscape:connector-curvature="0" />
    <path
       style="fill:#cccccc;stroke:#000000;stroke-width:0.14205799px;stroke-linecap:butt;stroke-linejoin:miter;stroke-opacity:1"
       d="m 137.38075,255.36664 c 23.21953,-87.95462 -9.64965,-92.4616 -9.64965,-92.4616 -17.09978,-4.40565 -5.02588,59.45584 -7.53883,89.18377 5.19395,-0.84788 10.85812,0.007 17.18848,3.27783 z"
       id="path12-6-6"
       inkscape:connector-curvature="0"
       sodipodi:nodetypes="cccc" />
    <path
       style="fill:#ff8080;stroke:#000000;stroke-width:0.14205799px;stroke-linecap:butt;stroke-linejoin:miter;stroke-opacity:1"
       d="m 133.68749,252.34594 c 13.56567,-83.8885 -1.77471,-84.68184 -5.79719,-84.59833 -8.65816,-2.77603 0.31084,56.46414 -2.30555,83.24631 2.9948,0.11792 5.67642,0.59042 8.10274,1.35202 z"
       id="path29-7-2"
       inkscape:connector-curvature="0"
       sodipodi:nodetypes="cccc" />
    <path
       style="fill:#cccccc;stroke:#000000;stroke-width:0.26458332px;stroke-linecap:butt;stroke-linejoin:miter;stroke-opacity:1"
       d="M 96.429784,196.47176 C 6.6604394,163.20986 4.3925825,221.41819 4.3925825,221.41819 c 1.170276,10.39434 10.7672085,5.67882 18.8988095,3.59078 l 39.593007,-15.49702 c 4.702072,0.24311 8.515291,1.63285 7.722799,6.16782 1.722545,0.0568 -0.573149,42.72822 10.186704,39.65246 8.106412,-2.31726 12.23619,-0.72452 14.778042,-3.67112 3.490178,-4.04593 -0.454871,-20.96064 2.215148,-45.98625 0.943961,-8.25432 -0.720534,-6.82008 -1.357308,-9.2031 z"
       id="path90"
       inkscape:connector-curvature="0"
       sodipodi:nodetypes="cccccsscc" />
    <path
       style="fill:#ff8080;stroke:#000000;stroke-width:0.14205799px;stroke-linecap:butt;stroke-linejoin:miter;stroke-opacity:1"
       d="m 81.919143,252.50407 c -18.777453,-65.62076 -5.556057,-31.44453 7.209842,-41.81987 2.800086,6.07812 -1.724441,13.68678 0.892882,40.46784 -2.994792,0.11791 -5.676405,0.59043 -8.102724,1.35203 z"
       id="path29-5"
       inkscape:connector-curvature="0"
       sodipodi:nodetypes="cccc" />
    <path
       style="fill:none;stroke:#000000;stroke-width:0.26458332px;stroke-linecap:butt;stroke-linejoin:miter;stroke-opacity:1"
       d="m 97.653603,206.42904 c -3.111085,2.09225 -5.916975,3.42151 -8.524618,4.25516"
       id="path92"
       inkscape:connector-curvature="0"
       sodipodi:nodetypes="cc" />
    <path
       style="fill:none;stroke:#000000;stroke-width:0.26458332px;stroke-linecap:butt;stroke-linejoin:miter;stroke-opacity:1"
       d="m 74.461308,210.67968 c -2.900256,-1.53128 -7.525934,-1.00721 -11.57691,-1.16773"
       id="path94"
       inkscape:connector-curvature="0"
       sodipodi:nodetypes="cc" />
  </g>
</svg>
